<svg width="145" height="45" viewBox="0 0 145 45" fill="none" xmlns="http://www.w3.org/2000/svg">
<path d="M8.95996 18.3247C8.95996 18.0073 8.93148 17.7184 8.87451 17.458C8.81755 17.1976 8.69548 16.9575 8.5083 16.7378C8.32926 16.5181 8.06478 16.2983 7.71484 16.0786C7.37305 15.8589 6.92546 15.631 6.37207 15.395C5.71289 15.1183 5.07406 14.8254 4.45557 14.5161C3.83708 14.1987 3.27962 13.8325 2.7832 13.4175C2.28678 13.0024 1.89209 12.5142 1.59912 11.9526C1.31429 11.383 1.17188 10.7157 1.17188 9.95068C1.17188 9.20199 1.30615 8.52246 1.57471 7.91211C1.8514 7.30176 2.24202 6.78092 2.74658 6.34961C3.25114 5.91016 3.84115 5.57243 4.5166 5.33643C5.2002 5.10042 5.9611 4.98242 6.79932 4.98242C7.93864 4.98242 8.92334 5.21842 9.75342 5.69043C10.5916 6.16243 11.2386 6.80941 11.6943 7.63135C12.1582 8.45329 12.3901 9.3973 12.3901 10.4634H8.82568C8.82568 9.95882 8.75244 9.5153 8.60596 9.13281C8.46761 8.74219 8.24382 8.43701 7.93457 8.21729C7.62533 7.99756 7.22656 7.8877 6.73828 7.8877C6.28255 7.8877 5.90413 7.98128 5.60303 8.16846C5.31006 8.34749 5.09033 8.5957 4.94385 8.91309C4.8055 9.22233 4.73633 9.57227 4.73633 9.96289C4.73633 10.2559 4.8055 10.5203 4.94385 10.7563C5.09033 10.9842 5.28971 11.1917 5.54199 11.3789C5.79427 11.5579 6.09131 11.7329 6.43311 11.9038C6.78304 12.0747 7.16553 12.2415 7.58057 12.4043C8.38623 12.7217 9.09831 13.0716 9.7168 13.4541C10.3353 13.8285 10.8521 14.2516 11.2671 14.7236C11.6821 15.1875 11.9954 15.7124 12.207 16.2983C12.4186 16.8843 12.5244 17.5516 12.5244 18.3003C12.5244 19.0409 12.3942 19.7163 12.1338 20.3267C11.8815 20.9289 11.5112 21.4497 11.0229 21.8892C10.5347 22.3205 9.94466 22.6541 9.25293 22.8901C8.56934 23.1261 7.80436 23.2441 6.95801 23.2441C6.13607 23.2441 5.35889 23.1302 4.62646 22.9023C3.89404 22.6663 3.24707 22.3123 2.68555 21.8403C2.13216 21.3602 1.69678 20.7539 1.37939 20.0215C1.06201 19.2809 0.90332 18.4061 0.90332 17.397H4.47998C4.47998 17.9341 4.53288 18.3939 4.63867 18.7764C4.74447 19.1507 4.90723 19.4518 5.12695 19.6797C5.34668 19.8994 5.61523 20.0662 5.93262 20.1802C6.25814 20.286 6.62842 20.3389 7.04346 20.3389C7.51546 20.3389 7.88981 20.2493 8.1665 20.0703C8.45133 19.8913 8.65479 19.6512 8.77686 19.3501C8.89893 19.049 8.95996 18.7072 8.95996 18.3247ZM18.2129 12.5264V23H14.7827V9.79199H18.0054L18.2129 12.5264ZM17.7246 15.9443L16.7847 15.9688C16.7684 15.041 16.8498 14.1865 17.0288 13.4053C17.2078 12.624 17.4764 11.9445 17.8345 11.3667C18.2007 10.7889 18.6605 10.3413 19.2139 10.0239C19.7673 9.70654 20.4142 9.54785 21.1548 9.54785C21.6349 9.54785 22.0785 9.63737 22.4854 9.81641C22.8923 9.9873 23.2463 10.2599 23.5474 10.6343C23.8485 11.0005 24.0804 11.4806 24.2432 12.0747C24.4059 12.6606 24.4873 13.3646 24.4873 14.1865V23H21.0693V14.6016C21.0693 14.0156 21.0124 13.568 20.8984 13.2588C20.7845 12.9414 20.6217 12.7217 20.4102 12.5996C20.1986 12.4694 19.9382 12.4043 19.6289 12.4043C19.3034 12.4043 19.0186 12.4938 18.7744 12.6729C18.5303 12.8519 18.3309 13.1042 18.1763 13.4297C18.0298 13.7471 17.9159 14.1214 17.8345 14.5527C17.7612 14.984 17.7246 15.4479 17.7246 15.9443ZM24.1577 15.6025L22.9248 15.7612C22.9085 14.8905 22.9858 14.0807 23.1567 13.332C23.3276 12.5752 23.5921 11.916 23.9502 11.3545C24.3083 10.7848 24.7559 10.3413 25.293 10.0239C25.8382 9.70654 26.4689 9.54785 27.1851 9.54785C27.7222 9.54785 28.2104 9.63737 28.6499 9.81641C29.0894 9.99544 29.4637 10.2843 29.7729 10.6831C30.0903 11.0737 30.3304 11.5905 30.4932 12.2334C30.6641 12.8763 30.7495 13.6576 30.7495 14.5771V23H27.3193V14.5894C27.3193 13.9953 27.2624 13.5396 27.1484 13.2222C27.0345 12.9048 26.8717 12.6891 26.6602 12.5752C26.4486 12.4613 26.1963 12.4043 25.9033 12.4043C25.6104 12.4043 25.354 12.4857 25.1343 12.6484C24.9227 12.8112 24.7437 13.0391 24.5972 13.332C24.4507 13.6169 24.3408 13.9546 24.2676 14.3452C24.1943 14.7277 24.1577 15.1468 24.1577 15.6025ZM39.1479 19.9604V13.8569C39.1479 13.4582 39.0991 13.1408 39.0015 12.9048C38.9119 12.6688 38.7736 12.4979 38.5864 12.3921C38.4074 12.2782 38.1877 12.2212 37.9272 12.2212C37.6343 12.2212 37.3901 12.2822 37.1948 12.4043C36.9995 12.5264 36.853 12.7013 36.7554 12.9292C36.6659 13.1571 36.6211 13.4297 36.6211 13.7471H33.1909C33.1909 13.1774 33.3008 12.6403 33.5205 12.1357C33.7402 11.623 34.0617 11.1755 34.4849 10.793C34.9162 10.4023 35.4289 10.0972 36.0229 9.87744C36.617 9.65771 37.2843 9.54785 38.0249 9.54785C38.9038 9.54785 39.6851 9.6984 40.3687 9.99951C41.0522 10.2925 41.5934 10.7604 41.9922 11.4033C42.391 12.0462 42.5903 12.8804 42.5903 13.9058V19.7896C42.5903 20.5301 42.627 21.1323 42.7002 21.5962C42.7816 22.0601 42.8996 22.4588 43.0542 22.7925V23H39.6118C39.4572 22.6338 39.3392 22.1781 39.2578 21.6328C39.1846 21.0794 39.1479 20.522 39.1479 19.9604ZM39.563 14.9312L39.5752 16.9819H38.3179C37.9924 16.9819 37.7075 17.0348 37.4634 17.1406C37.2274 17.2464 37.028 17.397 36.8652 17.5923C36.7025 17.7795 36.5804 17.9992 36.499 18.2515C36.4258 18.5037 36.3892 18.7723 36.3892 19.0571C36.3892 19.3745 36.4339 19.6431 36.5234 19.8628C36.613 20.0825 36.7472 20.2493 36.9263 20.3633C37.1053 20.4772 37.3169 20.5342 37.561 20.5342C37.9354 20.5342 38.2609 20.4569 38.5376 20.3022C38.8143 20.1476 39.0177 19.9604 39.1479 19.7407C39.2863 19.521 39.3311 19.3175 39.2822 19.1304L40.0635 20.4609C39.9658 20.762 39.8315 21.0754 39.6606 21.4009C39.4979 21.7264 39.2904 22.0275 39.0381 22.3042C38.7858 22.5809 38.4725 22.8088 38.0981 22.9878C37.7319 23.1587 37.2965 23.2441 36.792 23.2441C36.084 23.2441 35.437 23.0814 34.8511 22.7559C34.2651 22.4303 33.8013 21.9746 33.4595 21.3887C33.1258 20.8027 32.959 20.1069 32.959 19.3013C32.959 18.634 33.0648 18.0317 33.2764 17.4946C33.4961 16.9494 33.8216 16.4896 34.2529 16.1152C34.6842 15.7327 35.2295 15.4398 35.8887 15.2363C36.5479 15.0329 37.321 14.9312 38.208 14.9312H39.563ZM48.5352 12.7339V23H45.1172V9.79199H48.3398L48.5352 12.7339ZM51.6479 9.69434L51.5991 13.1001C51.4445 13.0675 51.2573 13.0431 51.0376 13.0269C50.826 13.0106 50.6388 13.0024 50.4761 13.0024C50.0936 13.0024 49.7681 13.0635 49.4995 13.1855C49.231 13.2995 49.0072 13.4744 48.8281 13.7104C48.6572 13.9383 48.527 14.2231 48.4375 14.5649C48.348 14.9067 48.2951 15.2933 48.2788 15.7246L47.6318 15.4805C47.6318 14.6178 47.6969 13.8285 47.8271 13.1123C47.9655 12.388 48.1689 11.7614 48.4375 11.2324C48.7061 10.6953 49.0275 10.2803 49.4019 9.9873C49.7843 9.69434 50.2157 9.54785 50.6958 9.54785C50.8586 9.54785 51.0295 9.56413 51.2085 9.59668C51.3957 9.62109 51.5422 9.65365 51.6479 9.69434ZM59.7656 9.79199V12.3677H53.0273V9.79199H59.7656ZM54.5776 6.53271H57.9834V18.9717C57.9834 19.3379 58.02 19.6187 58.0933 19.814C58.1665 20.0093 58.2764 20.1476 58.4229 20.229C58.5775 20.3022 58.7809 20.3389 59.0332 20.3389C59.2041 20.3389 59.3628 20.3307 59.5093 20.3145C59.6558 20.29 59.7656 20.2656 59.8389 20.2412V22.9146C59.5703 23.0203 59.2855 23.1017 58.9844 23.1587C58.6914 23.2157 58.3415 23.2441 57.9346 23.2441C57.251 23.2441 56.6569 23.1139 56.1523 22.8535C55.6559 22.5931 55.2694 22.1781 54.9927 21.6084C54.716 21.0306 54.5776 20.2738 54.5776 19.3379V6.53271ZM72.2412 23H69.104L69.1284 20.0459H72.2412C73.1038 20.0459 73.7752 19.8913 74.2554 19.582C74.7355 19.2728 75.0732 18.7845 75.2686 18.1172C75.472 17.4499 75.5737 16.575 75.5737 15.4927V12.7217C75.5737 11.8997 75.5208 11.2039 75.415 10.6343C75.3092 10.0565 75.1302 9.59261 74.8779 9.24268C74.6257 8.8846 74.2879 8.62012 73.8647 8.44922C73.4416 8.27832 72.9167 8.19287 72.29 8.19287H69.043V5.22656H72.29C73.3154 5.22656 74.2472 5.39339 75.0854 5.72705C75.9237 6.06071 76.6439 6.54899 77.2461 7.19189C77.8483 7.82666 78.3122 8.61198 78.6377 9.54785C78.9632 10.4837 79.126 11.5498 79.126 12.7461V15.4927C79.126 16.6971 78.9632 17.7632 78.6377 18.6909C78.3122 19.6187 77.8483 20.404 77.2461 21.0469C76.652 21.6816 75.9318 22.1659 75.0854 22.4995C74.2391 22.8332 73.291 23 72.2412 23ZM71.1792 5.22656V23H67.6025V5.22656H71.1792ZM86.8896 23.2441C85.9863 23.2441 85.1847 23.1058 84.4849 22.8291C83.7931 22.5524 83.2072 22.1536 82.7271 21.6328C82.2469 21.1038 81.8807 20.465 81.6284 19.7163C81.3761 18.9676 81.25 18.1131 81.25 17.1528V16.0664C81.25 14.9922 81.3721 14.0522 81.6162 13.2466C81.8604 12.4328 82.2062 11.7492 82.6538 11.1958C83.1014 10.6424 83.6507 10.2314 84.3018 9.96289C84.9609 9.6862 85.7056 9.54785 86.5356 9.54785C87.3657 9.54785 88.0941 9.6862 88.7207 9.96289C89.3555 10.2314 89.8804 10.6383 90.2954 11.1836C90.7104 11.7207 91.0238 12.388 91.2354 13.1855C91.4469 13.9831 91.5527 14.9108 91.5527 15.9688V17.5312H82.7026V15.1265H88.1958V14.8213C88.1958 14.2842 88.1388 13.8366 88.0249 13.4785C87.911 13.1123 87.7319 12.8397 87.4878 12.6606C87.2437 12.4816 86.9181 12.3921 86.5112 12.3921C86.1694 12.3921 85.8805 12.4613 85.6445 12.5996C85.4085 12.738 85.2214 12.9536 85.083 13.2466C84.9447 13.5396 84.8429 13.922 84.7778 14.394C84.7127 14.8579 84.6802 15.4154 84.6802 16.0664V17.1528C84.6802 17.7632 84.7331 18.2759 84.8389 18.6909C84.9447 19.0978 85.0993 19.4315 85.3027 19.6919C85.5143 19.9442 85.7707 20.1273 86.0718 20.2412C86.3729 20.347 86.7228 20.3999 87.1216 20.3999C87.7238 20.3999 88.265 20.2941 88.7451 20.0825C89.2334 19.8628 89.6484 19.5658 89.9902 19.1914L91.3574 21.2666C91.1214 21.5758 90.7959 21.8851 90.3809 22.1943C89.9658 22.5036 89.4694 22.7559 88.8916 22.9512C88.3138 23.1465 87.6465 23.2441 86.8896 23.2441ZM97.2534 20.3633L99.3774 9.79199H102.942L99.3164 23H97.1802L97.2534 20.3633ZM95.9961 9.79199L98.1567 20.3755L98.1934 23H96.0449L92.4194 9.79199H95.9961ZM108.179 9.79199V23H104.749V9.79199H108.179ZM104.59 6.37402C104.59 5.84505 104.757 5.40967 105.09 5.06787C105.432 4.71794 105.888 4.54297 106.458 4.54297C107.035 4.54297 107.491 4.71794 107.825 5.06787C108.158 5.40967 108.325 5.84505 108.325 6.37402C108.325 6.89486 108.154 7.33024 107.812 7.68018C107.479 8.02197 107.031 8.19287 106.47 8.19287C105.892 8.19287 105.432 8.02197 105.09 7.68018C104.757 7.33024 104.59 6.89486 104.59 6.37402ZM115.662 20.3999C115.979 20.3999 116.252 20.3348 116.479 20.2046C116.715 20.0744 116.895 19.8628 117.017 19.5698C117.139 19.2769 117.204 18.8984 117.212 18.4346H120.422C120.422 19.4274 120.211 20.286 119.788 21.0103C119.373 21.7264 118.811 22.2798 118.103 22.6704C117.403 23.0529 116.61 23.2441 115.723 23.2441C114.836 23.2441 114.062 23.1017 113.403 22.8169C112.744 22.5321 112.199 22.117 111.768 21.5718C111.344 21.0265 111.023 20.3633 110.803 19.582C110.592 18.7926 110.486 17.8893 110.486 16.8721V15.9077C110.486 14.9067 110.592 14.0116 110.803 13.2222C111.023 12.4328 111.344 11.7655 111.768 11.2202C112.199 10.675 112.74 10.2599 113.391 9.9751C114.05 9.69027 114.823 9.54785 115.71 9.54785C116.663 9.54785 117.489 9.74723 118.188 10.146C118.888 10.5366 119.434 11.1144 119.824 11.8794C120.223 12.6444 120.422 13.5884 120.422 14.7114H117.212C117.204 14.2069 117.143 13.7878 117.029 13.4541C116.923 13.1123 116.756 12.8519 116.528 12.6729C116.309 12.4857 116.016 12.3921 115.649 12.3921C115.267 12.3921 114.958 12.4735 114.722 12.6362C114.494 12.7909 114.319 13.0187 114.197 13.3198C114.083 13.6128 114.006 13.979 113.965 14.4185C113.924 14.8579 113.904 15.3543 113.904 15.9077V16.8721C113.904 17.4661 113.92 17.9829 113.953 18.4224C113.993 18.8537 114.071 19.2199 114.185 19.521C114.307 19.814 114.482 20.0337 114.709 20.1802C114.945 20.3267 115.263 20.3999 115.662 20.3999ZM127.71 23.2441C126.807 23.2441 126.005 23.1058 125.305 22.8291C124.613 22.5524 124.028 22.1536 123.547 21.6328C123.067 21.1038 122.701 20.465 122.449 19.7163C122.196 18.9676 122.07 18.1131 122.07 17.1528V16.0664C122.07 14.9922 122.192 14.0522 122.437 13.2466C122.681 12.4328 123.027 11.7492 123.474 11.1958C123.922 10.6424 124.471 10.2314 125.122 9.96289C125.781 9.6862 126.526 9.54785 127.356 9.54785C128.186 9.54785 128.914 9.6862 129.541 9.96289C130.176 10.2314 130.701 10.6383 131.116 11.1836C131.531 11.7207 131.844 12.388 132.056 13.1855C132.267 13.9831 132.373 14.9108 132.373 15.9688V17.5312H123.523V15.1265H129.016V14.8213C129.016 14.2842 128.959 13.8366 128.845 13.4785C128.731 13.1123 128.552 12.8397 128.308 12.6606C128.064 12.4816 127.738 12.3921 127.332 12.3921C126.99 12.3921 126.701 12.4613 126.465 12.5996C126.229 12.738 126.042 12.9536 125.903 13.2466C125.765 13.5396 125.663 13.922 125.598 14.394C125.533 14.8579 125.5 15.4154 125.5 16.0664V17.1528C125.5 17.7632 125.553 18.2759 125.659 18.6909C125.765 19.0978 125.92 19.4315 126.123 19.6919C126.335 19.9442 126.591 20.1273 126.892 20.2412C127.193 20.347 127.543 20.3999 127.942 20.3999C128.544 20.3999 129.085 20.2941 129.565 20.0825C130.054 19.8628 130.469 19.5658 130.811 19.1914L132.178 21.2666C131.942 21.5758 131.616 21.8851 131.201 22.1943C130.786 22.5036 130.29 22.7559 129.712 22.9512C129.134 23.1465 128.467 23.2441 127.71 23.2441Z" fill="#F2F5F7"/>
<path d="M2.56641 40.3086L4.28906 34.6602H5.80078L3.25781 41.9668C3.19922 42.123 3.12305 42.293 3.0293 42.4766C2.93555 42.6602 2.8125 42.834 2.66016 42.998C2.51172 43.166 2.32617 43.3008 2.10352 43.4023C1.88086 43.5078 1.61133 43.5605 1.29492 43.5605C1.16992 43.5605 1.04883 43.5488 0.931641 43.5254C0.818359 43.5059 0.710938 43.4844 0.609375 43.4609L0.603516 42.3828C0.642578 42.3867 0.689453 42.3906 0.744141 42.3945C0.802734 42.3984 0.849609 42.4004 0.884766 42.4004C1.11914 42.4004 1.31445 42.3711 1.4707 42.3125C1.62695 42.2578 1.75391 42.168 1.85156 42.043C1.95312 41.918 2.03906 41.75 2.10938 41.5391L2.56641 40.3086ZM1.59375 34.6602L3.09961 39.4062L3.35156 40.8945L2.37305 41.1465L0.0703125 34.6602H1.59375ZM10.377 39.2891L12.2637 34.6602H13.4883L10.8574 41H9.89648L7.27148 34.6602H8.49609L10.377 39.2891ZM8.13281 34.6602V41H6.7207V34.6602H8.13281ZM12.6211 41V34.6602H14.0391V41H12.6211ZM19.9512 37.3086V38.4219H16.6699V37.3086H19.9512ZM17.0801 34.6602V41H15.668V34.6602H17.0801ZM20.9707 34.6602V41H19.5586V34.6602H20.9707ZM23.5254 36.6758H25.3945C25.9414 36.6758 26.4062 36.7676 26.7891 36.9512C27.1719 37.1348 27.4629 37.3906 27.6621 37.7188C27.8652 38.043 27.9668 38.4141 27.9668 38.832C27.9668 39.1406 27.9102 39.4277 27.7969 39.6934C27.6836 39.9551 27.5156 40.1836 27.293 40.3789C27.0742 40.5742 26.8047 40.7266 26.4844 40.8359C26.168 40.9453 25.8047 41 25.3945 41H22.5879V34.6602H24.0059V39.8809H25.3945C25.6758 39.8809 25.9004 39.832 26.0684 39.7344C26.2363 39.6367 26.3574 39.5098 26.4316 39.3535C26.5098 39.1973 26.5488 39.0312 26.5488 38.8555C26.5488 38.6758 26.5098 38.5059 26.4316 38.3457C26.3574 38.1855 26.2363 38.0547 26.0684 37.9531C25.9004 37.8516 25.6758 37.8008 25.3945 37.8008H23.5254V36.6758ZM30.4629 34.6602V41H29.0508V34.6602H30.4629ZM34.9277 41.1172C34.459 41.1172 34.0352 41.041 33.6562 40.8887C33.2812 40.7324 32.9609 40.5156 32.6953 40.2383C32.4336 39.9609 32.2324 39.6348 32.0918 39.2598C31.9512 38.8848 31.8809 38.4805 31.8809 38.0469V37.8125C31.8809 37.3164 31.9531 36.8672 32.0977 36.4648C32.2422 36.0625 32.4434 35.7188 32.7012 35.4336C32.959 35.1445 33.2637 34.9238 33.6152 34.7715C33.9668 34.6191 34.3477 34.543 34.7578 34.543C35.2109 34.543 35.6074 34.6191 35.9473 34.7715C36.2871 34.9238 36.5684 35.1387 36.791 35.416C37.0176 35.6895 37.1855 36.0156 37.2949 36.3945C37.4082 36.7734 37.4648 37.1914 37.4648 37.6484V38.252H32.5664V37.2383H36.0703V37.127C36.0625 36.873 36.0117 36.6348 35.918 36.4121C35.8281 36.1895 35.6895 36.0098 35.502 35.873C35.3145 35.7363 35.0645 35.668 34.752 35.668C34.5176 35.668 34.3086 35.7188 34.125 35.8203C33.9453 35.918 33.7949 36.0605 33.6738 36.248C33.5527 36.4355 33.459 36.6621 33.3926 36.9277C33.3301 37.1895 33.2988 37.4844 33.2988 37.8125V38.0469C33.2988 38.3242 33.3359 38.582 33.4102 38.8203C33.4883 39.0547 33.6016 39.2598 33.75 39.4355C33.8984 39.6113 34.0781 39.75 34.2891 39.8516C34.5 39.9492 34.7402 39.998 35.0098 39.998C35.3496 39.998 35.6523 39.9297 35.918 39.793C36.1836 39.6562 36.4141 39.4629 36.6094 39.2129L37.3535 39.9336C37.2168 40.1328 37.0391 40.3242 36.8203 40.5078C36.6016 40.6875 36.334 40.834 36.0176 40.9473C35.7051 41.0605 35.3418 41.1172 34.9277 41.1172ZM44.4961 34.6602V41H43.0781V34.6602H44.4961ZM46.5762 34.6602V35.7734H41.0332V34.6602H46.5762ZM49.8809 41.1172C49.4121 41.1172 48.9883 41.041 48.6094 40.8887C48.2344 40.7324 47.9141 40.5156 47.6484 40.2383C47.3867 39.9609 47.1855 39.6348 47.0449 39.2598C46.9043 38.8848 46.834 38.4805 46.834 38.0469V37.8125C46.834 37.3164 46.9062 36.8672 47.0508 36.4648C47.1953 36.0625 47.3965 35.7188 47.6543 35.4336C47.9121 35.1445 48.2168 34.9238 48.5684 34.7715C48.9199 34.6191 49.3008 34.543 49.7109 34.543C50.1641 34.543 50.5605 34.6191 50.9004 34.7715C51.2402 34.9238 51.5215 35.1387 51.7441 35.416C51.9707 35.6895 52.1387 36.0156 52.248 36.3945C52.3613 36.7734 52.418 37.1914 52.418 37.6484V38.252H47.5195V37.2383H51.0234V37.127C51.0156 36.873 50.9648 36.6348 50.8711 36.4121C50.7812 36.1895 50.6426 36.0098 50.4551 35.873C50.2676 35.7363 50.0176 35.668 49.7051 35.668C49.4707 35.668 49.2617 35.7188 49.0781 35.8203C48.8984 35.918 48.748 36.0605 48.627 36.248C48.5059 36.4355 48.4121 36.6621 48.3457 36.9277C48.2832 37.1895 48.252 37.4844 48.252 37.8125V38.0469C48.252 38.3242 48.2891 38.582 48.3633 38.8203C48.4414 39.0547 48.5547 39.2598 48.7031 39.4355C48.8516 39.6113 49.0312 39.75 49.2422 39.8516C49.4531 39.9492 49.6934 39.998 49.9629 39.998C50.3027 39.998 50.6055 39.9297 50.8711 39.793C51.1367 39.6562 51.3672 39.4629 51.5625 39.2129L52.3066 39.9336C52.1699 40.1328 51.9922 40.3242 51.7734 40.5078C51.5547 40.6875 51.2871 40.834 50.9707 40.9473C50.6582 41.0605 50.2949 41.1172 49.8809 41.1172ZM54.5977 34.6602L55.8047 36.7637L57.0352 34.6602H58.5879L56.666 37.7715L58.6641 41H57.1113L55.8223 38.8086L54.5332 41H52.9746L54.9668 37.7715L53.0508 34.6602H54.5977ZM63.8848 37.3086V38.4219H60.6035V37.3086H63.8848ZM61.0137 34.6602V41H59.6016V34.6602H61.0137ZM64.9043 34.6602V41H63.4922V34.6602H64.9043ZM66.1406 37.9004V37.7656C66.1406 37.3086 66.207 36.8848 66.3398 36.4941C66.4727 36.0996 66.6641 35.7578 66.9141 35.4688C67.168 35.1758 67.4766 34.9492 67.8398 34.7891C68.207 34.625 68.6211 34.543 69.082 34.543C69.5469 34.543 69.9609 34.625 70.3242 34.7891C70.6914 34.9492 71.002 35.1758 71.2559 35.4688C71.5098 35.7578 71.7031 36.0996 71.8359 36.4941C71.9688 36.8848 72.0352 37.3086 72.0352 37.7656V37.9004C72.0352 38.3574 71.9688 38.7812 71.8359 39.1719C71.7031 39.5625 71.5098 39.9043 71.2559 40.1973C71.002 40.4863 70.6934 40.7129 70.3301 40.877C69.9668 41.0371 69.5547 41.1172 69.0938 41.1172C68.6289 41.1172 68.2129 41.0371 67.8457 40.877C67.4824 40.7129 67.1738 40.4863 66.9199 40.1973C66.666 39.9043 66.4727 39.5625 66.3398 39.1719C66.207 38.7812 66.1406 38.3574 66.1406 37.9004ZM67.5527 37.7656V37.9004C67.5527 38.1855 67.582 38.4551 67.6406 38.709C67.6992 38.9629 67.791 39.1855 67.916 39.377C68.041 39.5684 68.2012 39.7188 68.3965 39.8281C68.5918 39.9375 68.8242 39.9922 69.0938 39.9922C69.3555 39.9922 69.582 39.9375 69.7734 39.8281C69.9688 39.7188 70.1289 39.5684 70.2539 39.377C70.3789 39.1855 70.4707 38.9629 70.5293 38.709C70.5918 38.4551 70.623 38.1855 70.623 37.9004V37.7656C70.623 37.4844 70.5918 37.2188 70.5293 36.9688C70.4707 36.7148 70.377 36.4902 70.248 36.2949C70.123 36.0996 69.9629 35.9473 69.7676 35.8379C69.5762 35.7246 69.3477 35.668 69.082 35.668C68.8164 35.668 68.5859 35.7246 68.3906 35.8379C68.1992 35.9473 68.041 36.0996 67.916 36.2949C67.791 36.4902 67.6992 36.7148 67.6406 36.9688C67.582 37.2188 67.5527 37.4844 67.5527 37.7656ZM77.3848 34.6602V35.7852H74.291V34.6602H77.3848ZM78.4922 34.6602V41H77.0801V34.6602H78.4922ZM73.9453 34.6602H75.3398L75.1699 37.7949C75.1465 38.2598 75.0996 38.6699 75.0293 39.0254C74.9629 39.377 74.873 39.6797 74.7598 39.9336C74.6465 40.1836 74.5078 40.3867 74.3438 40.543C74.1797 40.6992 73.9883 40.8145 73.7695 40.8887C73.5508 40.9629 73.3047 41 73.0312 41H72.5918L72.5859 39.8398L72.8086 39.8223C72.9531 39.8105 73.0781 39.7734 73.1836 39.7109C73.2891 39.6445 73.3789 39.5508 73.4531 39.4297C73.5312 39.3086 73.5938 39.1523 73.6406 38.9609C73.6914 38.7695 73.7305 38.543 73.7578 38.2812C73.7891 38.0195 73.8125 37.7148 73.8281 37.3672L73.9453 34.6602ZM79.7227 37.9004V37.7656C79.7227 37.3086 79.7891 36.8848 79.9219 36.4941C80.0547 36.0996 80.2461 35.7578 80.4961 35.4688C80.75 35.1758 81.0586 34.9492 81.4219 34.7891C81.7891 34.625 82.2031 34.543 82.6641 34.543C83.1289 34.543 83.543 34.625 83.9062 34.7891C84.2734 34.9492 84.584 35.1758 84.8379 35.4688C85.0918 35.7578 85.2852 36.0996 85.418 36.4941C85.5508 36.8848 85.6172 37.3086 85.6172 37.7656V37.9004C85.6172 38.3574 85.5508 38.7812 85.418 39.1719C85.2852 39.5625 85.0918 39.9043 84.8379 40.1973C84.584 40.4863 84.2754 40.7129 83.9121 40.877C83.5488 41.0371 83.1367 41.1172 82.6758 41.1172C82.2109 41.1172 81.7949 41.0371 81.4277 40.877C81.0645 40.7129 80.7559 40.4863 80.502 40.1973C80.248 39.9043 80.0547 39.5625 79.9219 39.1719C79.7891 38.7812 79.7227 38.3574 79.7227 37.9004ZM81.1348 37.7656V37.9004C81.1348 38.1855 81.1641 38.4551 81.2227 38.709C81.2812 38.9629 81.373 39.1855 81.498 39.377C81.623 39.5684 81.7832 39.7188 81.9785 39.8281C82.1738 39.9375 82.4062 39.9922 82.6758 39.9922C82.9375 39.9922 83.1641 39.9375 83.3555 39.8281C83.5508 39.7188 83.7109 39.5684 83.8359 39.377C83.9609 39.1855 84.0527 38.9629 84.1113 38.709C84.1738 38.4551 84.2051 38.1855 84.2051 37.9004V37.7656C84.2051 37.4844 84.1738 37.2188 84.1113 36.9688C84.0527 36.7148 83.959 36.4902 83.8301 36.2949C83.7051 36.0996 83.5449 35.9473 83.3496 35.8379C83.1582 35.7246 82.9297 35.668 82.6641 35.668C82.3984 35.668 82.168 35.7246 81.9727 35.8379C81.7812 35.9473 81.623 36.0996 81.498 36.2949C81.373 36.4902 81.2812 36.7148 81.2227 36.9688C81.1641 37.2188 81.1348 37.4844 81.1348 37.7656ZM91.0195 34.6602V35.7852H88.2539V41H86.8418V34.6602H91.0195ZM93.2988 38.9375L95.7891 34.6602H97.2012V41H95.7891V36.7168L93.2988 41H91.8867V34.6602H93.2988V38.9375ZM100.154 38.9375L102.645 34.6602H104.057V41H102.645V36.7168L100.154 41H98.7422V34.6602H100.154V38.9375Z" fill="white" fill-opacity="0.7"/>
</svg>
