<svg width="40" height="40" viewBox="0 0 40 40" fill="none" xmlns="http://www.w3.org/2000/svg">
<path fill-rule="evenodd" clip-rule="evenodd" d="M10.1771 11.0311C9.94121 10.7952 9.94121 10.4128 10.1771 10.1769C10.413 9.94103 10.7954 9.94103 11.0313 10.1769L20.0001 19.1458L28.9689 10.1769C29.2048 9.94103 29.5872 9.94103 29.8231 10.1769C30.059 10.4128 30.059 10.7952 29.8231 11.0311L20.8543 20L29.8232 28.9689C30.0591 29.2048 30.0591 29.5872 29.8232 29.8231C29.5873 30.059 29.2049 30.059 28.969 29.8231L20.0001 20.8541L11.0312 29.8231C10.7953 30.059 10.4129 30.059 10.177 29.8231C9.94112 29.5872 9.94112 29.2048 10.177 28.9689L19.1459 20L10.1771 11.0311Z" fill="white"/>
</svg>
